<svg version="1.0" xmlns="http://www.w3.org/2000/svg" width="682.667" height="682.667" viewBox="0 0 512 512"><path d="M147.5 168.4c-6.2 2.8-11.5 11-11.5 17.9 0 4.6 3.8 11.5 8.3 15.1 3.5 2.8 4.6 3.1 10.6 3.1 5.7 0 7.4-.4 10.9-2.8 11.8-7.8 10.7-26.4-2-32.6-5-2.4-11.8-2.7-16.3-.7zM208 186v10l85.8-.2 85.7-.3v-19l-85.7-.3-85.8-.2v10zM150 244.2c-7.9 2.2-14 10.3-14 18.3 0 2.1.9 5.8 2.1 8.2 5.5 11.5 20 14.4 29.6 6 4.4-3.8 6.3-8.2 6.3-14.1 0-5.6-1.4-9.3-4.8-12.9-5-5.3-12.5-7.5-19.2-5.5zM208 262.5v9.5h172v-19H208v9.5zM147.5 321.7c-6.9 3.6-11.5 10.5-11.5 17.3 0 7.9 7.4 17.2 14.5 18.6 12.9 2.4 23.5-6.2 23.5-18.9 0-13.3-15.1-23.1-26.5-17zM208 339v10l85.8-.2 85.7-.3v-19l-85.7-.3-85.8-.2v10z"/></svg>