<svg version="1.0" xmlns="http://www.w3.org/2000/svg" width="1308" height="1308" viewBox="0 0 981 981"><path d="M47.2 3C29.6 7.6 14.8 19.5 7.1 35.1-.7 50.9 0 8.1.2 494.2l.3 436.3 2.2 6.5A66.68 66.68 0 0044 978.3l6.5 2.2 436.3.3c485.8.2 443.3.9 459-6.9 15.7-7.7 27.7-22.8 32.2-40.5 2-7.6 2-13.1 2-442.4 0-429.3 0-434.8-2-442.4-5.3-20.9-19.9-36.8-41-44.7l-6.5-2.4-438-.2C64.1 1.1 54.3 1.1 47.2 3zM321 347.8c11.5 2.1 29 6.7 30.1 8 .6.7-12.2 62.7-13.2 63.6-.3.4-3.2-.3-6.3-1.4-14.4-4.9-39.5-7.3-54.6-5.1-42.2 6.2-67.3 41.8-62.2 88.3 2.3 20.2 8.4 34 20.7 46.3 15.8 15.7 35.9 22.5 62.9 21.2 13-.6 24.8-2.6 35.2-5.8 3.6-1.1 6.8-1.9 7-1.7.3.4 10.4 60.9 10.4 62.7 0 2.2-22.1 8.2-39.2 10.6-15.6 2.3-46.7 3.1-59.8 1.6-67.7-7.8-110.6-45.1-124.1-108.1-2-9.2-2.3-13.4-2.3-33.5 0-20 .2-24.3 2.2-33.1 3.1-14.5 6.5-24.4 12.7-37.1 21.2-43.4 63.7-71.2 119.8-78.3 12.5-1.5 47.7-.5 60.7 1.8zm217.5-.4c19.4 3.5 44.5 11.4 44.5 14 0 .7-7.7 31.2-14.1 55.8l-.9 3.7-7.4-3.4c-17.6-8.2-34-11.9-52.1-12-10.2 0-14.2.4-18.3 1.9-13.3 4.6-19.4 16.9-14.3 28.3 3.5 7.5 12.1 12.5 39.6 22.8 30.4 11.4 43.9 18.9 56.7 31.3 11.6 11.1 18.1 23.1 21.4 39.2 2.3 11.6 1.6 32.6-1.6 42.5-10.9 34.5-39.8 55.6-87 63.7-11.8 2-52.9 1.7-66.5-.5-19.6-3.3-34.5-7.5-49.5-14.3l-5.6-2.5 7.4-30.7c4.1-16.9 7.6-30.9 7.8-31.1.2-.2 4.3 1.4 9.1 3.7 11.9 5.5 27 10.6 39.5 13.4 13.8 3.1 39.3 3.3 47.6.4 10.2-3.5 16.2-11.3 16.2-21.1 0-13.5-8.7-20.4-39-30.9-39.9-14-63-30.7-74.6-54.1-5.8-11.6-7.8-22.1-6.9-35.8 2.8-44.5 36.5-76.7 89-85.2 12-1.9 46.4-1.4 59 .9zm249 0c19.4 3.5 44.5 11.4 44.5 14 0 .7-7.7 31.2-14.1 55.8l-.9 3.7-7.4-3.4c-17.6-8.2-34-11.9-52.1-12-10.2 0-14.2.4-18.3 1.9-13.3 4.6-19.4 16.9-14.3 28.3 3.5 7.5 12.1 12.5 39.6 22.8 30.4 11.4 43.9 18.9 56.7 31.3 11.6 11.1 18.1 23.1 21.4 39.2 2.3 11.7 1.6 32.6-1.6 42.5-10.1 31.7-35.8 52.6-75.5 61.4-14.8 3.3-30.2 4.4-50.5 3.8-30.5-1-53.8-5.9-77-16.3l-5.6-2.5 7.4-30.7c4.1-16.9 7.6-30.9 7.8-31.1.2-.2 4.3 1.4 9.1 3.7 11.9 5.5 27 10.6 39.5 13.4 13.8 3.1 39.3 3.3 47.6.4 13.1-4.5 19.6-17.5 14.7-29.4-3.8-9.1-10.8-13-46-25.8-50-18.2-75.5-48.4-73-86.3.8-12.5 2.8-20.7 8-31.6 8.7-18.7 22-31.7 43-42.3 11.7-5.8 28.6-10.7 43.5-12.6 8.2-1 44.8.2 53.5 1.8z"/></svg>