<?xml version="1.0" standalone="no"?>
<!DOCTYPE svg PUBLIC "-//W3C//DTD SVG 20010904//EN"
 "http://www.w3.org/TR/2001/REC-SVG-20010904/DTD/svg10.dtd">
<svg version="1.0" xmlns="http://www.w3.org/2000/svg"
 width="225.000000pt" height="225.000000pt" viewBox="0 0 225.000000 225.000000"
 preserveAspectRatio="xMidYMid meet">
<metadata>
Created by potrace 1.16, written by Peter Selinger 2001-2019
</metadata>
<g transform="translate(0.000000,225.000000) scale(0.100000,-0.100000)"
fill="#000000" stroke="none">
<path d="M1035 2224 c-287 -31 -515 -142 -709 -344 -346 -363 -401 -905 -134
-1341 69 -113 234 -278 347 -347 533 -326 1214 -160 1535 375 209 350 199 810
-28 1158 -196 301 -511 480 -876 498 -52 3 -113 3 -135 1z m330 -103 c228 -56
444 -200 583 -389 290 -393 262 -940 -67 -1293 -152 -165 -325 -266 -538 -315
-117 -28 -338 -26 -457 4 -375 94 -664 383 -758 758 -31 125 -32 372 0 486 51
185 143 346 274 476 155 156 354 257 574 292 89 14 296 4 389 -19z"/>
<path d="M506 1604 c-14 -14 -16 -71 -16 -477 0 -274 4 -468 10 -477 8 -13 89
-15 625 -15 536 0 617 2 625 15 6 9 10 203 10 477 0 406 -2 463 -16 477 -14
14 -84 16 -619 16 -535 0 -605 -2 -619 -16z m1174 -33 c0 -16 -521 -516 -541
-519 -14 -3 -94 69 -284 254 -146 141 -265 261 -265 266 0 4 245 8 545 8 318
0 545 -4 545 -9z m-923 -223 l211 -211 -211 -163 c-117 -90 -215 -163 -219
-164 -5 0 -8 169 -8 375 0 206 3 375 7 375 4 0 103 -95 220 -212z m963 -174
c0 -232 -4 -364 -10 -362 -16 5 -410 309 -410 316 0 10 403 412 412 412 5 0 8
-165 8 -366z m-585 -184 c11 0 44 25 75 55 l55 54 225 -172 c206 -159 225
-176 228 -207 2 -19 -2 -36 -10 -41 -7 -5 -269 -9 -583 -9 -314 0 -576 4 -583
9 -8 5 -12 22 -10 41 3 31 22 49 233 211 l230 178 60 -60 c33 -32 69 -59 80
-59z"/>
</g>
</svg>
