<?xml version="1.0" standalone="no"?>
<!DOCTYPE svg PUBLIC "-//W3C//DTD SVG 20010904//EN"
 "http://www.w3.org/TR/2001/REC-SVG-20010904/DTD/svg10.dtd">
<svg version="1.0" xmlns="http://www.w3.org/2000/svg"
 width="256.000000pt" height="256.000000pt" viewBox="0 0 256.000000 256.000000"
 preserveAspectRatio="xMidYMid meet">
<metadata>
Created by potrace 1.16, written by Peter Selinger 2001-2019
</metadata>
<g transform="translate(0.000000,256.000000) scale(0.100000,-0.100000)"
fill="#000000" stroke="none">
<path d="M1065 2509 c-153 -25 -346 -103 -485 -194 -98 -65 -242 -204 -312
-301 -153 -214 -228 -453 -228 -728 0 -180 29 -331 94 -483 l26 -62 -60 -292
c-33 -160 -60 -307 -60 -326 0 -48 37 -83 87 -83 21 0 167 31 325 68 251 60
289 67 310 55 42 -23 206 -73 294 -88 111 -19 303 -19 424 0 510 83 922 495
1005 1005 66 413 -67 819 -361 1100 -171 164 -380 272 -613 320 -106 21 -344
26 -446 9z m413 -94 c383 -73 698 -328 846 -687 181 -436 86 -911 -248 -1243
-338 -337 -801 -430 -1246 -249 l-89 36 -302 -72 c-165 -39 -303 -70 -305 -67
-2 2 24 143 59 314 63 307 64 310 47 344 -30 58 -77 200 -95 289 -24 113 -24
306 -1 418 98 467 439 814 896 912 109 24 326 26 438 5z"/>
<path d="M825 1896 c-48 -21 -132 -113 -165 -179 -26 -53 -30 -70 -30 -146 0
-106 17 -172 70 -277 79 -157 259 -349 440 -470 175 -116 304 -158 464 -152
79 3 111 8 147 26 84 41 199 173 199 229 0 17 6 23 21 23 18 0 14 8 -30 58
-54 63 -60 65 -275 123 -91 25 -131 15 -191 -48 -52 -54 -62 -54 -156 9 -78
52 -259 225 -283 271 l-19 33 42 55 c59 78 57 113 -16 280 -61 141 -84 168
-151 175 -20 2 -50 -2 -67 -10z m72 -84 c7 -4 37 -64 67 -132 50 -114 54 -127
40 -145 -79 -109 -88 -141 -54 -210 40 -83 269 -294 381 -350 52 -27 107 -32
142 -14 12 6 42 31 67 55 l45 43 125 -36 c69 -19 131 -41 139 -48 8 -8 11 -23
7 -38 -9 -37 -105 -137 -151 -158 -50 -23 -177 -25 -258 -4 -256 67 -618 399
-704 647 -29 83 -33 185 -10 241 17 40 122 157 141 157 6 0 17 -4 23 -8z"/>
</g>
</svg>
